@startuml UC4 SMD
skinparam style strictuml
skinparam DefaultFontSize 16
skinparam DefaultFontName times new roman
skinparam ArrowFontSize 16
skinparam ArrowThickness 2.2
skinparam Linetype poly
skinparam ranksep 100
skinparam nodesep 10
hide empty members

mainframe **SMD** UC4: Administrator login

hide empty description
state "Log ind" as login
state "Validering" as val

state "Muligheder" as mul
state "Print data" as data
state "Rediger system" as rediger
state "Initialisering" as init

[*] --> login : Trykker start/PC starter
login --> val : validate(password)
val --> mul : OK

mul --> data : Vælger rediger system
data --> mul : Vis log

mul --> rediger : Vælger rediger system
rediger --> mul : Vis at redigering blev fuldført

mul --> init : Vælger initialisering
init --> mul : Vis validation



login : entry/Vis log ind UI

val : entry/updatePCLog(log)

mul : entry/Vis mulige handlinger

data : entry/printLog()

init : entry/initialise()

rediger : entry/showOptions
rediger : do/changeSystem(newSystem)

mul --> [*] : Vælger log ud
@enduml